<svg xmlns="http://www.w3.org/2000/svg" xmlns:xlink="http://www.w3.org/1999/xlink" width="500" zoomAndPan="magnify" viewBox="0 0 375 374.999991" height="500" preserveAspectRatio="xMidYMid meet" version="1.0"><defs><g/></defs><g fill="#000000" fill-opacity="0.4"><g transform="translate(18.199262, 325.086833)"><g><path d="M 117.265625 -141.859375 C 130.679688 -135.679688 140.957031 -126.679688 148.09375 -114.859375 C 155.226562 -103.035156 158.796875 -89.566406 158.796875 -74.453125 C 158.796875 -58.472656 155.015625 -44.941406 147.453125 -33.859375 C 139.890625 -22.785156 130.09375 -14.375 118.0625 -8.625 C 106.03125 -2.875 93.195312 0 79.5625 0 C 79.5625 0 79.453125 0 79.234375 0 L 79.234375 -46.015625 C 79.453125 -46.015625 79.5625 -46.015625 79.5625 -46.015625 C 88.082031 -46.015625 95.535156 -48.625 101.921875 -53.84375 C 108.316406 -59.0625 111.515625 -65.929688 111.515625 -74.453125 C 111.515625 -80.835938 109.863281 -86.265625 106.5625 -90.734375 C 103.257812 -95.210938 99.15625 -98.726562 94.25 -101.28125 C 89.351562 -103.84375 84.457031 -105.226562 79.5625 -105.4375 C 78.5 -105.4375 74.238281 -105.804688 66.78125 -106.546875 C 59.320312 -107.296875 50.90625 -109.800781 41.53125 -114.0625 C 28.332031 -120.238281 18.109375 -128.8125 10.859375 -139.78125 C 3.617188 -150.757812 0 -163.703125 0 -178.609375 C 0 -194.585938 3.78125 -208.328125 11.34375 -219.828125 C 18.90625 -231.328125 28.753906 -240.164062 40.890625 -246.34375 C 53.035156 -252.519531 65.925781 -255.609375 79.5625 -255.609375 C 94.257812 -255.609375 107.460938 -252.570312 119.171875 -246.5 C 130.890625 -240.4375 140.207031 -231.914062 147.125 -220.9375 C 154.050781 -209.96875 157.625 -197.242188 157.84375 -182.765625 C 158.050781 -182.335938 157.78125 -181.800781 157.03125 -181.15625 C 156.289062 -180.519531 155.390625 -180.203125 154.328125 -180.203125 L 114.390625 -180.203125 C 113.535156 -180.203125 112.734375 -180.519531 111.984375 -181.15625 C 111.242188 -181.800781 110.875 -182.335938 110.875 -182.765625 C 110.65625 -191.921875 107.457031 -198.679688 101.28125 -203.046875 C 95.101562 -207.421875 87.863281 -209.609375 79.5625 -209.609375 C 70.820312 -209.609375 63.3125 -207 57.03125 -201.78125 C 50.75 -196.5625 47.609375 -188.835938 47.609375 -178.609375 C 47.609375 -169.453125 50.910156 -162.472656 57.515625 -157.671875 C 64.117188 -152.878906 71.46875 -150.484375 79.5625 -150.484375 C 80.195312 -150.484375 82.320312 -150.378906 85.9375 -150.171875 C 89.5625 -149.960938 94.195312 -149.269531 99.84375 -148.09375 C 105.488281 -146.925781 111.296875 -144.847656 117.265625 -141.859375 Z M 117.265625 -141.859375 "/></g></g></g><g fill="#2cd6d5" fill-opacity="1"><g transform="translate(4.078496, 310.966064)"><g><path d="M 117.265625 -141.859375 C 130.679688 -135.679688 140.957031 -126.679688 148.09375 -114.859375 C 155.226562 -103.035156 158.796875 -89.566406 158.796875 -74.453125 C 158.796875 -58.472656 155.015625 -44.941406 147.453125 -33.859375 C 139.890625 -22.785156 130.09375 -14.375 118.0625 -8.625 C 106.03125 -2.875 93.195312 0 79.5625 0 C 79.5625 0 79.453125 0 79.234375 0 L 79.234375 -46.015625 C 79.453125 -46.015625 79.5625 -46.015625 79.5625 -46.015625 C 88.082031 -46.015625 95.535156 -48.625 101.921875 -53.84375 C 108.316406 -59.0625 111.515625 -65.929688 111.515625 -74.453125 C 111.515625 -80.835938 109.863281 -86.265625 106.5625 -90.734375 C 103.257812 -95.210938 99.15625 -98.726562 94.25 -101.28125 C 89.351562 -103.84375 84.457031 -105.226562 79.5625 -105.4375 C 78.5 -105.4375 74.238281 -105.804688 66.78125 -106.546875 C 59.320312 -107.296875 50.90625 -109.800781 41.53125 -114.0625 C 28.332031 -120.238281 18.109375 -128.8125 10.859375 -139.78125 C 3.617188 -150.757812 0 -163.703125 0 -178.609375 C 0 -194.585938 3.78125 -208.328125 11.34375 -219.828125 C 18.90625 -231.328125 28.753906 -240.164062 40.890625 -246.34375 C 53.035156 -252.519531 65.925781 -255.609375 79.5625 -255.609375 C 94.257812 -255.609375 107.460938 -252.570312 119.171875 -246.5 C 130.890625 -240.4375 140.207031 -231.914062 147.125 -220.9375 C 154.050781 -209.96875 157.625 -197.242188 157.84375 -182.765625 C 158.050781 -182.335938 157.78125 -181.800781 157.03125 -181.15625 C 156.289062 -180.519531 155.390625 -180.203125 154.328125 -180.203125 L 114.390625 -180.203125 C 113.535156 -180.203125 112.734375 -180.519531 111.984375 -181.15625 C 111.242188 -181.800781 110.875 -182.335938 110.875 -182.765625 C 110.65625 -191.921875 107.457031 -198.679688 101.28125 -203.046875 C 95.101562 -207.421875 87.863281 -209.609375 79.5625 -209.609375 C 70.820312 -209.609375 63.3125 -207 57.03125 -201.78125 C 50.75 -196.5625 47.609375 -188.835938 47.609375 -178.609375 C 47.609375 -169.453125 50.910156 -162.472656 57.515625 -157.671875 C 64.117188 -152.878906 71.46875 -150.484375 79.5625 -150.484375 C 80.195312 -150.484375 82.320312 -150.378906 85.9375 -150.171875 C 89.5625 -149.960938 94.195312 -149.269531 99.84375 -148.09375 C 105.488281 -146.925781 111.296875 -144.847656 117.265625 -141.859375 Z M 117.265625 -141.859375 "/></g></g></g><g fill="#000000" fill-opacity="0.4"><g transform="translate(137.378942, 325.086833)"><g/></g></g><g fill="#000000" fill-opacity="0.4"><g transform="translate(169.649574, 325.086833)"><g/></g></g><g fill="#2cd6d5" fill-opacity="1"><g transform="translate(123.258175, 310.966064)"><g/></g></g><g fill="#2cd6d5" fill-opacity="1"><g transform="translate(155.528807, 310.966064)"><g/></g></g><g fill="#000000" fill-opacity="0.4"><g transform="translate(201.925813, 325.086833)"><g><path d="M 85.953125 -255.609375 C 88.078125 -255.609375 92.332031 -255.34375 98.71875 -254.8125 C 105.113281 -254.28125 112.410156 -252.789062 120.609375 -250.34375 C 128.816406 -247.894531 136.859375 -243.953125 144.734375 -238.515625 C 152.617188 -233.085938 159.171875 -225.578125 164.390625 -215.984375 C 169.609375 -206.398438 172.21875 -194.046875 172.21875 -178.921875 C 172.21875 -166.359375 170.300781 -155.765625 166.46875 -147.140625 C 162.632812 -138.515625 157.570312 -131.429688 151.28125 -125.890625 C 145 -120.347656 138.34375 -115.976562 131.3125 -112.78125 C 124.289062 -109.59375 117.53125 -107.304688 111.03125 -105.921875 C 104.53125 -104.535156 98.988281 -103.679688 94.40625 -103.359375 C 89.832031 -103.046875 87.015625 -102.890625 85.953125 -102.890625 L 47.921875 -102.890625 L 47.921875 -2.875 C 47.921875 -0.957031 46.859375 0 44.734375 0 L 3.1875 0 C 1.0625 0 0 -0.957031 0 -2.875 L 0 -150.171875 L 85.953125 -150.171875 C 87.648438 -150.171875 90.46875 -150.382812 94.40625 -150.8125 C 98.351562 -151.238281 102.613281 -152.300781 107.1875 -154 C 111.769531 -155.707031 115.660156 -158.53125 118.859375 -162.46875 C 122.054688 -166.414062 123.65625 -171.898438 123.65625 -178.921875 C 123.65625 -185.953125 122.003906 -191.488281 118.703125 -195.53125 C 115.398438 -199.582031 111.457031 -202.515625 106.875 -204.328125 C 102.300781 -206.140625 98.039062 -207.3125 94.09375 -207.84375 C 90.15625 -208.375 87.441406 -208.640625 85.953125 -208.640625 L 0 -208.640625 L 0 -252.734375 C 0 -254.648438 1.0625 -255.609375 3.1875 -255.609375 Z M 85.953125 -255.609375 "/></g></g></g><g fill="#2cd6d5" fill-opacity="1"><g transform="translate(187.805046, 310.966064)"><g><path d="M 85.953125 -255.609375 C 88.078125 -255.609375 92.332031 -255.34375 98.71875 -254.8125 C 105.113281 -254.28125 112.410156 -252.789062 120.609375 -250.34375 C 128.816406 -247.894531 136.859375 -243.953125 144.734375 -238.515625 C 152.617188 -233.085938 159.171875 -225.578125 164.390625 -215.984375 C 169.609375 -206.398438 172.21875 -194.046875 172.21875 -178.921875 C 172.21875 -166.359375 170.300781 -155.765625 166.46875 -147.140625 C 162.632812 -138.515625 157.570312 -131.429688 151.28125 -125.890625 C 145 -120.347656 138.34375 -115.976562 131.3125 -112.78125 C 124.289062 -109.59375 117.53125 -107.304688 111.03125 -105.921875 C 104.53125 -104.535156 98.988281 -103.679688 94.40625 -103.359375 C 89.832031 -103.046875 87.015625 -102.890625 85.953125 -102.890625 L 47.921875 -102.890625 L 47.921875 -2.875 C 47.921875 -0.957031 46.859375 0 44.734375 0 L 3.1875 0 C 1.0625 0 0 -0.957031 0 -2.875 L 0 -150.171875 L 85.953125 -150.171875 C 87.648438 -150.171875 90.46875 -150.382812 94.40625 -150.8125 C 98.351562 -151.238281 102.613281 -152.300781 107.1875 -154 C 111.769531 -155.707031 115.660156 -158.53125 118.859375 -162.46875 C 122.054688 -166.414062 123.65625 -171.898438 123.65625 -178.921875 C 123.65625 -185.953125 122.003906 -191.488281 118.703125 -195.53125 C 115.398438 -199.582031 111.457031 -202.515625 106.875 -204.328125 C 102.300781 -206.140625 98.039062 -207.3125 94.09375 -207.84375 C 90.15625 -208.375 87.441406 -208.640625 85.953125 -208.640625 L 0 -208.640625 L 0 -252.734375 C 0 -254.648438 1.0625 -255.609375 3.1875 -255.609375 Z M 85.953125 -255.609375 "/></g></g></g></svg>